<svg xmlns="http://www.w3.org/2000/svg" width="24" height="24" viewBox="0 0 24 24">
    <g fill="none" fill-rule="evenodd" transform="translate(2 2)">
        <rect width="20" height="20" fill="transparent" rx="1.95"/>
        <g fill="#FFF">
            <path d="M5.672 12.687c.895 0 1.641.746 1.641 1.492 0 .896-.746 1.642-1.641 1.642-.747 0-1.493-.746-1.493-1.642 0-.746.746-1.492 1.493-1.492z"/>
            <path d="M4.18 10.299c1.492 0 2.835.597 3.88 1.641.895 1.045 1.492 2.388 1.492 3.88h2.239c0-4.327-3.433-7.76-7.612-7.76v2.239z"/>
            <path d="M4.18 6.418a9.364 9.364 0 0 1 9.402 9.403h2.239c0-6.418-5.224-11.642-11.642-11.642v2.239z"/>
        </g>
    </g>
</svg>
