<svg
            version="1.1"
            id="Capa_1"
            xmlns="http:www.w3.org/2000/svg"
            xmlns:xlink="http://www.w3.org/1999/xlink"
            x="0px"
            y="0px"
            viewBox="0 0 50.747 50.747"
            style="enable-background:new 0 0 50.747 50.747;"
            xml:space="preserve"
          >
            <g>
              <g>
                <path
                
                  style="fill:white;"
                  d="M48.837,25.537l-3.146-6.834c0,0-7.188,0.333-8.535-1.667c-1.348-2,1.648-7.833-0.898-13.333
                   c-1.865-4.031-4.697-3.496-6.076-2.923c-0.465,0.193-0.672,0.844-0.539,1.376c0.907,3.671,1.322,11.022-3.867,14.214
                   c-1.665,1.024-2.65,2.391-5.751,2.939c-0.465,0.083-2.735,2.146-3.212,2.188c-3.876,0.337-7.521,0.322-10.07,0.238
                   C6.905,22.138,7,22.576,7,23.037v23c0,0.422-0.087,0.82-0.224,1.195c9.794-0.037,12.711,1.218,12.711,1.218
                   c16.772,4.246,23.51,0.087,23.51,0.087s3.594-9,6.589-14S48.837,25.537,48.837,25.537z"
                />
                <path
                  
                  style="fill:white;"
                  d="M3.5,20.537h-1c-1.378,0-2.5,1.122-2.5,2.5v23c0,1.379,1.122,2.5,2.5,2.5h1
                   c1.378,0,2.5-1.121,2.5-2.5v-23C6,21.659,4.878,20.537,3.5,20.537z"
                />
              </g>
            </g>
            <g></g>
            <g></g>
            <g></g>
            <g></g>
            <g></g>
            <g></g>
            <g></g>
            <g></g>
            <g></g>
            <g></g>
            <g></g>
            <g></g>
            <g></g>
            <g></g>
            <g></g>
          </svg>